<svg width="36" height="33" viewBox="0 0 36 33" fill="none" xmlns="http://www.w3.org/2000/svg">
<path d="M34 4.06068C34 4.6072 33.8127 5.13134 33.4793 5.5178C33.1459 5.90425 32.6937 6.12136 32.2222 6.12136H3.77778C3.30628 6.12136 2.8541 5.90425 2.5207 5.5178C2.1873 5.13134 2 4.6072 2 4.06068C2 3.51415 2.1873 2.99001 2.5207 2.60356C2.8541 2.21711 3.30628 2 3.77778 2H32.2222C32.6937 2 33.1459 2.21711 33.4793 2.60356C33.8127 2.99001 34 3.51415 34 4.06068Z" fill="black" stroke="#0A0000" stroke-width="3"/>
<path d="M34 16.4248C34 16.9713 33.8127 17.4954 33.4793 17.8819C33.1459 18.2683 32.6937 18.4854 32.2222 18.4854H3.77778C3.30628 18.4854 2.8541 18.2683 2.5207 17.8819C2.1873 17.4954 2 16.9713 2 16.4248C2 15.8782 2.1873 15.3541 2.5207 14.9676C2.8541 14.5812 3.30628 14.3641 3.77778 14.3641H32.2222C32.6937 14.3641 33.1459 14.5812 33.4793 14.9676C33.8127 15.3541 34 15.8782 34 16.4248Z" fill="black" stroke="#0A0000" stroke-width="3"/>
<path d="M34 28.7888C34 29.3354 33.8127 29.8595 33.4793 30.2459C33.1459 30.6324 32.6937 30.8495 32.2222 30.8495H3.77778C3.30628 30.8495 2.8541 30.6324 2.5207 30.2459C2.1873 29.8595 2 29.3354 2 28.7888C2 28.2423 2.1873 27.7182 2.5207 27.3317C2.8541 26.9453 3.30628 26.7281 3.77778 26.7281H32.2222C32.6937 26.7281 33.1459 26.9453 33.4793 27.3317C33.8127 27.7182 34 28.2423 34 28.7888Z" fill="black" stroke="#0A0000" stroke-width="3"/>
</svg>
