<svg width="231" height="32" viewBox="0 0 231 32" fill="none" xmlns="http://www.w3.org/2000/svg">
<path d="M64.5067 11.7791C64.4168 11.9329 64.3224 12.0483 64.2236 12.1253C64.1247 12.2022 63.9974 12.2407 63.8416 12.2407C63.7038 12.2407 63.5555 12.1942 63.3968 12.1012C63.238 12.0083 63.0583 11.9041 62.8575 11.7887C62.6568 11.6733 62.4277 11.5691 62.17 11.4761C61.9124 11.3832 61.6188 11.3367 61.2893 11.3367C60.7201 11.3367 60.2962 11.4665 60.0176 11.7262C59.7391 11.9858 59.5998 12.3369 59.5998 12.7793C59.5998 13.0614 59.6836 13.2954 59.8514 13.4813C60.0191 13.6672 60.2393 13.8275 60.5119 13.9622C60.7845 14.0968 61.0961 14.2202 61.4466 14.3324C61.7971 14.4446 62.1551 14.5697 62.5205 14.7075C62.886 14.8454 63.244 15.0073 63.5945 15.1932C63.945 15.3791 64.2565 15.6163 64.5291 15.9049C64.8017 16.1934 65.0219 16.5444 65.1897 16.9579C65.3574 17.3715 65.4413 17.87 65.4413 18.4534C65.4413 19.101 65.3365 19.7069 65.1268 20.2711C64.9171 20.8353 64.613 21.3274 64.2146 21.7473C63.8162 22.1673 63.3249 22.4975 62.7407 22.7379C62.1566 22.9783 61.493 23.0986 60.7501 23.0986C60.3427 23.0986 59.9278 23.0537 59.5054 22.9639C59.083 22.8742 58.6741 22.7475 58.2787 22.584C57.8832 22.4205 57.5118 22.2266 57.1643 22.0022C56.8168 21.7778 56.5142 21.5277 56.2566 21.252L57.1553 19.7325C57.2212 19.6171 57.3141 19.5242 57.4339 19.4536C57.5537 19.3831 57.6825 19.3478 57.8203 19.3478C58.0001 19.3478 58.1813 19.4087 58.364 19.5306C58.5468 19.6524 58.7535 19.787 58.9841 19.9345C59.2148 20.082 59.4799 20.2166 59.7795 20.3384C60.0791 20.4602 60.4325 20.5211 60.84 20.5211C61.3912 20.5211 61.8195 20.3913 62.1251 20.1316C62.4307 19.872 62.5834 19.46 62.5834 18.8958C62.5834 18.5688 62.4996 18.3028 62.3318 18.0976C62.164 17.8924 61.9439 17.7225 61.6713 17.5879C61.3987 17.4532 61.0886 17.3346 60.7411 17.232C60.3936 17.1295 60.0371 17.0157 59.6716 16.8906C59.3062 16.7656 58.9497 16.6117 58.6022 16.429C58.2547 16.2463 57.9447 16.0058 57.672 15.7077C57.3994 15.4096 57.1793 15.0377 57.0115 14.5921C56.8437 14.1465 56.7599 13.5967 56.7599 12.9427C56.7599 12.417 56.8587 11.9041 57.0564 11.404C57.2541 10.9039 57.5447 10.4583 57.9282 10.0672C58.3116 9.67609 58.7819 9.36352 59.3391 9.1295C59.8963 8.89548 60.5344 8.77847 61.2534 8.77847C61.6548 8.77847 62.0457 8.81213 62.4262 8.87945C62.8066 8.94677 63.1676 9.04616 63.5091 9.17759C63.8506 9.30903 64.1696 9.46611 64.4662 9.64884C64.7628 9.83157 65.0279 10.0383 65.2616 10.2691L64.5067 11.7791Z" fill="black"/>
<path d="M78.3826 22.9446H75.327V17.0204H70.0067V22.9446H66.9511V8.93228H70.0067V14.7892H75.327V8.93228H78.3826V22.9446Z" fill="black"/>
<path d="M83.8646 22.9446H80.809V8.93228H83.8646V22.9446Z" fill="black"/>
<path d="M87.8909 8.93228C88.0227 8.93228 88.1335 8.93869 88.2234 8.95152C88.3133 8.96434 88.3942 8.98838 88.466 9.02364C88.5379 9.05891 88.6068 9.1086 88.6727 9.17271C88.7387 9.23682 88.8135 9.32338 88.8974 9.43237L95.1164 17.8475C95.0925 17.5782 95.0745 17.3169 95.0625 17.0637C95.0505 16.8104 95.0445 16.5716 95.0445 16.3472V8.93228H97.7227V22.9446H96.141C95.9073 22.9446 95.7096 22.9062 95.5478 22.8292C95.386 22.7523 95.2303 22.6112 95.0805 22.4061L88.9064 14.0583C88.9244 14.3019 88.9394 14.5408 88.9513 14.7748C88.9633 15.0088 88.9693 15.2284 88.9693 15.4335V22.9446H86.2912V8.93228H87.8909Z" fill="black"/>
<path d="M108.309 8.93229V11.4328H102.935V14.7026H107.051V17.107H102.935V20.4441H108.309V22.9446H99.8795V8.93228L108.309 8.93229Z" fill="black"/>
<path d="M125.69 22.9446H123.336C123.072 22.9446 122.855 22.8789 122.684 22.7475C122.513 22.616 122.395 22.4477 122.329 22.2426L121.556 19.7998H116.577L115.804 22.2426C115.745 22.4221 115.628 22.584 115.454 22.7282C115.28 22.8725 115.068 22.9446 114.816 22.9446H112.443L117.512 8.93228H120.622L125.69 22.9446ZM117.278 17.5878H120.855L119.651 13.7505C119.573 13.5069 119.482 13.22 119.377 12.8898C119.272 12.5596 119.169 12.2022 119.067 11.8175C118.971 12.2086 118.872 12.5708 118.77 12.9042C118.668 13.2376 118.572 13.5261 118.483 13.7698L117.278 17.5878Z" fill="black"/>
<path d="M138.632 15.9337C138.632 16.9467 138.468 17.8811 138.142 18.7371C137.815 19.593 137.355 20.3335 136.762 20.9587C136.169 21.5838 135.455 22.0711 134.619 22.4205C133.783 22.7699 132.856 22.9446 131.837 22.9446H126.751V8.93228H131.837C132.856 8.93228 133.783 9.1086 134.619 9.46123C135.455 9.81386 136.169 10.3011 136.762 10.9231C137.355 11.545 137.815 12.2839 138.142 13.1398C138.468 13.9958 138.632 14.927 138.632 15.9337ZM135.522 15.9337C135.522 15.2412 135.438 14.6161 135.27 14.0583C135.103 13.5005 134.862 13.0276 134.547 12.6397C134.232 12.2518 133.847 11.9537 133.392 11.7453C132.937 11.537 132.419 11.4328 131.837 11.4328H129.806V20.4442H131.837C132.419 20.4442 132.937 20.34 133.392 20.1316C133.847 19.9232 134.232 19.6251 134.547 19.2372C134.862 18.8493 135.103 18.3764 135.27 17.8186C135.438 17.2608 135.522 16.6325 135.522 15.9337V15.9337Z" fill="black"/>
<path d="M138.47 8.93228H140.914C141.178 8.93228 141.393 8.99639 141.561 9.12463C141.729 9.25286 141.849 9.42276 141.921 9.63434L144.455 17.1358C144.569 17.4628 144.684 17.8186 144.801 18.2033C144.918 18.588 145.027 18.9919 145.129 19.4151C145.213 18.9919 145.31 18.588 145.421 18.2033C145.532 17.8186 145.641 17.4628 145.749 17.1358L148.266 9.63434C148.325 9.45482 148.442 9.29293 148.616 9.14867C148.79 9.00441 149.002 8.93228 149.254 8.93228H151.717L146.468 22.9446H143.718L138.47 8.93228Z" fill="black"/>
<path d="M161.225 8.93229V11.4328H155.851V14.7026H159.967V17.107H155.851V20.4441H161.225V22.9446H152.795V8.93228L161.225 8.93229Z" fill="black"/>
<path d="M165.988 17.7609V22.9446H162.95V8.93228H167.21C168.157 8.93228 168.964 9.03647 169.632 9.24484C170.3 9.45321 170.846 9.74334 171.268 10.1152C171.69 10.4871 171.997 10.9263 172.189 11.4328C172.381 11.9393 172.477 12.4907 172.477 13.0869C172.477 13.5422 172.42 13.9717 172.306 14.3756C172.192 14.7796 172.023 15.153 171.798 15.4961C171.573 15.8391 171.298 16.1452 170.971 16.4145C170.645 16.6838 170.269 16.905 169.843 17.0781C170.047 17.1871 170.237 17.3217 170.414 17.482C170.591 17.6423 170.745 17.8379 170.877 18.0687L173.663 22.9446H170.913C170.404 22.9446 170.038 22.7395 169.817 22.3291L167.642 18.261C167.546 18.0815 167.433 17.9533 167.305 17.8763C167.176 17.7994 166.995 17.7609 166.761 17.7609L165.988 17.7609ZM165.988 15.5201H167.21C167.624 15.5201 167.976 15.464 168.266 15.3518C168.557 15.2396 168.795 15.0841 168.981 14.8854C169.166 14.6866 169.301 14.4542 169.385 14.1881C169.469 13.9221 169.511 13.6351 169.511 13.3274C169.511 12.7119 169.324 12.231 168.949 11.8848C168.575 11.5386 167.995 11.3655 167.21 11.3655H165.988V15.5201Z" fill="black"/>
<path d="M183.872 8.93228V11.5097H180.187V22.9446H177.15V11.5097H173.465V8.93228H183.872Z" fill="black"/>
<path d="M188.456 22.9446H185.4V8.93228H188.456V22.9446Z" fill="black"/>
<path d="M198.18 11.7791C198.09 11.9329 197.995 12.0483 197.896 12.1253C197.798 12.2022 197.67 12.2407 197.514 12.2407C197.377 12.2407 197.228 12.1942 197.07 12.1012C196.911 12.0083 196.731 11.9041 196.53 11.7887C196.33 11.6733 196.101 11.5691 195.843 11.4761C195.585 11.3832 195.292 11.3367 194.962 11.3367C194.393 11.3367 193.969 11.4665 193.691 11.7262C193.412 11.9858 193.273 12.3369 193.273 12.7793C193.273 13.0614 193.356 13.2954 193.524 13.4813C193.692 13.6672 193.912 13.8275 194.185 13.9622C194.457 14.0968 194.769 14.2202 195.119 14.3324C195.47 14.4446 195.828 14.5697 196.193 14.7075C196.559 14.8454 196.917 15.0073 197.267 15.1932C197.618 15.3791 197.929 15.6163 198.202 15.9049C198.475 16.1934 198.695 16.5444 198.863 16.9579C199.03 17.3715 199.114 17.87 199.114 18.4534C199.114 19.101 199.009 19.7069 198.8 20.2711C198.59 20.8353 198.286 21.3274 197.887 21.7473C197.489 22.1673 196.998 22.4975 196.414 22.7379C195.829 22.9783 195.166 23.0986 194.423 23.0986C194.016 23.0986 193.601 23.0537 193.178 22.9639C192.756 22.8742 192.347 22.7475 191.952 22.584C191.556 22.4205 191.185 22.2266 190.837 22.0022C190.49 21.7778 190.187 21.5277 189.929 21.252L190.828 19.7325C190.894 19.6171 190.987 19.5242 191.107 19.4536C191.227 19.3831 191.355 19.3478 191.493 19.3478C191.673 19.3478 191.854 19.4087 192.037 19.5306C192.22 19.6524 192.426 19.787 192.657 19.9345C192.888 20.082 193.153 20.2166 193.452 20.3384C193.752 20.4602 194.105 20.5211 194.513 20.5211C195.064 20.5211 195.492 20.3913 195.798 20.1316C196.104 19.872 196.256 19.46 196.256 18.8958C196.256 18.5688 196.172 18.3028 196.005 18.0976C195.837 17.8924 195.617 17.7225 195.344 17.5879C195.072 17.4532 194.761 17.3346 194.414 17.232C194.066 17.1295 193.71 17.0157 193.345 16.8906C192.979 16.7656 192.623 16.6117 192.275 16.429C191.928 16.2463 191.618 16.0058 191.345 15.7077C191.072 15.4096 190.852 15.0377 190.684 14.5921C190.517 14.1465 190.433 13.5967 190.433 12.9427C190.433 12.417 190.532 11.9041 190.729 11.404C190.927 10.9039 191.218 10.4583 191.601 10.0672C191.984 9.67609 192.455 9.36352 193.012 9.1295C193.569 8.89548 194.207 8.77847 194.926 8.77847C195.328 8.77847 195.719 8.81213 196.099 8.87945C196.479 8.94677 196.84 9.04616 197.182 9.17759C197.523 9.30903 197.842 9.46611 198.139 9.64884C198.436 9.83157 198.701 10.0383 198.934 10.2691L198.18 11.7791Z" fill="black"/>
<path d="M203.949 22.9446H200.894V8.93228H203.949V22.9446Z" fill="black"/>
<path d="M207.975 8.93228C208.107 8.93228 208.218 8.93869 208.308 8.95152C208.398 8.96434 208.479 8.98838 208.55 9.02364C208.622 9.05891 208.691 9.1086 208.757 9.17271C208.823 9.23682 208.898 9.32338 208.982 9.43237L215.201 17.8475C215.177 17.5782 215.159 17.3169 215.147 17.0637C215.135 16.8104 215.129 16.5716 215.129 16.3472V8.93228H217.807V22.9446H216.225C215.992 22.9446 215.794 22.9062 215.632 22.8292C215.47 22.7523 215.315 22.6112 215.165 22.4061L208.991 14.0583C209.009 14.3019 209.024 14.5408 209.036 14.7748C209.048 15.0088 209.054 15.2284 209.054 15.4335V22.9446H206.376V8.93228H207.975Z" fill="black"/>
<path d="M226.129 20.5981C226.548 20.5981 226.92 20.5596 227.243 20.4827C227.567 20.4057 227.873 20.3031 228.16 20.1749V18.0495H226.866C226.674 18.0495 226.525 17.995 226.417 17.886C226.309 17.777 226.255 17.6392 226.255 17.4725V15.6837H230.91V21.5983C230.575 21.8612 230.226 22.0872 229.863 22.2763C229.501 22.4654 229.114 22.6209 228.704 22.7427C228.293 22.8645 227.856 22.9543 227.392 23.012C226.927 23.0697 226.429 23.0986 225.895 23.0986C224.937 23.0986 224.05 22.9174 223.235 22.5552C222.42 22.1929 221.715 21.6929 221.119 21.0549C220.523 20.417 220.055 19.6604 219.717 18.7852C219.378 17.9101 219.209 16.9596 219.209 15.9337C219.209 14.8886 219.371 13.9285 219.694 13.0533C220.018 12.1782 220.481 11.4232 221.083 10.7885C221.685 10.1537 222.413 9.66005 223.267 9.30742C224.12 8.95479 225.075 8.77847 226.129 8.77847C226.674 8.77847 227.187 8.82656 227.666 8.92273C228.145 9.01891 228.587 9.15034 228.991 9.31704C229.396 9.48374 229.766 9.68249 230.101 9.91331C230.437 10.1441 230.736 10.3942 231 10.6635L230.119 12.0964C230.035 12.2311 229.935 12.3369 229.818 12.4138C229.701 12.4907 229.574 12.5292 229.436 12.5292C229.257 12.5292 229.071 12.4651 228.879 12.3369C228.639 12.183 228.413 12.0499 228.201 11.9377C227.988 11.8255 227.771 11.7342 227.549 11.6636C227.327 11.5931 227.094 11.5418 226.848 11.5098C226.602 11.4777 226.327 11.4617 226.021 11.4617C225.452 11.4617 224.94 11.5691 224.484 11.7839C224.029 11.9986 223.641 12.3016 223.321 12.6927C223 13.0838 222.753 13.5534 222.579 14.1016C222.405 14.6498 222.319 15.2605 222.319 15.9337C222.319 16.6774 222.414 17.3378 222.606 17.9149C222.798 18.4919 223.063 18.9792 223.402 19.3767C223.74 19.7742 224.141 20.0771 224.606 20.2855C225.07 20.4939 225.578 20.5981 226.129 20.5981Z" fill="black"/>
<path fill-rule="evenodd" clip-rule="evenodd" d="M16.8429 0.428676C16.8494 0.309107 16.8567 0.173634 16.7444 0C16.6756 0.229095 16.6221 0.380466 16.5839 0.535925C16.3048 1.79596 16.0257 3.0519 15.7505 4.31194C15.4905 5.49834 15.2229 6.68473 14.9706 7.87522C14.8521 8.4316 14.9018 8.4725 15.4484 8.50114C15.7122 8.51341 15.976 8.55023 16.236 8.59523C16.6985 8.67296 16.7482 8.64024 16.7559 8.14113C16.7865 5.59652 16.8171 3.0519 16.84 0.507285C16.84 0.481724 16.8414 0.455603 16.8429 0.428676H16.8429ZM11.5796 2.00051C11.3885 1.48095 11.1782 0.96958 10.9756 0.454109C10.945 0.46229 10.9145 0.474558 10.8877 0.486836C10.8877 0.505929 10.8868 0.525014 10.886 0.544107C10.8843 0.582287 10.8826 0.620477 10.8877 0.658658C11.0597 1.80415 11.2279 2.94963 11.4 4.09512C11.6217 5.59243 11.8511 7.08975 12.0651 8.59116C12.1187 8.95935 12.2601 9.03299 12.5736 8.90208C12.8565 8.78344 13.1547 8.70571 13.4529 8.62798C13.9499 8.49707 13.9766 8.46024 13.7816 7.9325C13.0515 5.95245 12.3175 3.97648 11.5796 2.00052L11.5796 2.00051ZM21.7028 3.8783C21.9474 3.26874 22.1844 2.65099 22.4712 1.91869C22.1959 2.0537 22.1309 2.20507 22.043 2.33189C21.1943 3.58374 20.338 4.82742 19.4931 6.08336C18.9235 6.92611 18.3692 7.78113 17.8072 8.63206C17.6543 8.86525 17.6657 9.01253 17.941 9.14345C18.2698 9.29891 18.5909 9.48709 18.8814 9.7121C19.1758 9.94119 19.2981 9.86347 19.4281 9.53619C20.1812 7.64613 20.9458 5.76427 21.7028 3.8783V3.8783ZM5.89121 3.44257C5.82878 3.36918 5.75771 3.28562 5.57383 3.31373C6.19697 4.39376 6.79717 5.4247 7.39354 6.45564C8.11226 7.70749 8.8386 8.95934 9.54585 10.2194C9.72935 10.5426 9.89756 10.653 10.1805 10.3544C10.4175 10.1048 10.6889 9.8921 10.9794 9.71618C11.3006 9.5239 11.27 9.2989 11.033 9.04116C9.32794 7.18793 7.62674 5.3306 5.92172 3.47737C5.91147 3.46641 5.90146 3.45462 5.89121 3.44257H5.89121ZM24.0653 9.09435C25.0287 8.13296 25.9233 7.09793 26.8484 6.09154C26.8369 6.07108 26.8255 6.05063 26.8102 6.02608C26.6764 6.09972 26.5387 6.16517 26.4126 6.25108C25.5601 6.81564 24.7114 7.38429 23.8589 7.94477C22.7005 8.70979 21.5345 9.47072 20.3762 10.2357C19.9442 10.5221 19.9442 10.5876 20.3036 11.0008C20.4909 11.2176 20.6782 11.4426 20.8426 11.6799C21.1408 12.1176 21.1637 12.1217 21.5269 11.7453C22.3794 10.8698 23.2013 9.95754 24.0653 9.09434V9.09435ZM4.52635 9.22118C3.63561 8.81616 2.74486 8.40296 1.77384 7.95704C1.87323 8.23523 2.01086 8.31705 2.13319 8.41524C3.57061 9.53209 5.01186 10.6489 6.4531 11.7617C6.94625 12.1422 7.45088 12.5144 7.94786 12.8949C8.16576 13.0626 8.30721 13.034 8.43719 12.7599C8.6054 12.404 8.80801 12.0644 9.01063 11.7249C9.14061 11.4999 9.12914 11.3403 8.89212 11.2258C8.77743 11.1685 8.66656 11.1071 8.55188 11.0539C7.21003 10.4403 5.86819 9.83482 4.52634 9.22117L4.52635 9.22118ZM14.9362 22.6315C11.442 22.6315 8.63981 19.7146 8.63981 16.0736C8.63981 12.2813 11.4 9.3889 15.0279 9.3889C18.4533 9.3889 21.2669 12.4122 21.2631 16.0859C21.2631 19.6942 18.4189 22.6316 14.9362 22.6316V22.6315ZM26.08 13.2508C27.2001 12.7722 28.3241 12.2935 29.4442 11.8149C29.4403 11.7822 29.4327 11.7453 29.4289 11.7044C29.4072 11.7044 29.3856 11.704 29.3639 11.7035C29.3205 11.7026 29.2772 11.7017 29.2339 11.7044C28.3011 11.7781 27.3913 12.0031 26.4738 12.1585C24.9637 12.4122 23.4575 12.6904 21.9474 12.944C21.6683 12.989 21.5957 13.1036 21.6875 13.3899C21.806 13.754 21.9207 14.1263 21.9933 14.5027C22.0621 14.8668 22.2074 14.9159 22.517 14.7809C23.7021 14.2572 24.8911 13.7581 26.08 13.2508ZM0.930114 13.9583C0.643355 13.9384 0.341539 13.9174 0 14.024C0.229378 14.2286 0.451103 14.2572 0.661362 14.3063C1.89234 14.6131 3.12333 14.9241 4.35431 15.235C5.31386 15.4763 6.2696 15.73 7.22915 15.9754C7.5541 16.0573 7.73378 15.9632 7.74142 15.5663C7.74907 15.2718 7.80641 14.9772 7.85228 14.6827C7.94021 14.0977 7.90199 14.0445 7.33237 14.0404C7.19474 14.0386 7.05776 14.0391 6.92094 14.0397C6.73851 14.0403 6.55628 14.041 6.37281 14.0363C5.71542 14.0228 5.05807 14.0275 4.40068 14.0321H4.40056C3.26504 14.0401 2.12948 14.0482 0.993955 13.9627C0.972736 13.9612 0.951483 13.9598 0.93011 13.9583L0.930114 13.9583ZM26.9402 18.0046C27.9379 18.0414 28.9357 18.0741 29.9564 17.9801C29.8456 17.9269 29.7385 17.8614 29.62 17.8328C27.2842 17.2396 24.9408 16.6546 22.605 16.0573C22.2991 15.9795 22.15 16.0982 22.1233 16.4132C22.0927 16.8264 22.0812 17.2437 21.9818 17.6487C21.9283 17.8532 22.0506 17.9514 22.2303 17.9678C22.3565 17.9801 22.4788 17.9801 22.605 17.9801C23.0327 17.9813 23.4605 17.9796 23.8883 17.978L23.8894 17.9779C24.9063 17.974 25.9233 17.9701 26.9402 18.0046L26.9402 18.0046ZM2.21347 19.4569C1.62474 19.7106 1.03601 19.9601 0.389937 20.2383C0.541094 20.3821 0.645041 20.3585 0.740653 20.3367C0.753842 20.3337 0.766877 20.3308 0.779879 20.3283C2.26317 20.0788 3.74647 19.8292 5.22976 19.5715C6.10904 19.4201 6.98448 19.2565 7.86376 19.1051C8.16577 19.0519 8.26899 18.9087 8.15812 18.5814C8.05108 18.2746 7.9708 17.9596 7.89817 17.6405C7.7873 17.1659 7.7376 17.1291 7.29414 17.2846C7.20239 17.3173 7.11064 17.3541 7.01889 17.3909C5.41709 18.0782 3.81528 18.7696 2.21347 19.4569ZM26.122 23.1838C26.7643 23.4784 27.4142 23.7607 28.152 24.088C28.045 23.818 27.9112 23.7402 27.7888 23.6502C27.4142 23.372 27.0319 23.0938 26.6611 22.8075C25.086 21.5842 23.511 20.3651 21.9359 19.1378C21.7104 18.9619 21.5728 19.011 21.4466 19.2728C21.2937 19.5919 21.114 19.8947 20.9382 20.1974C20.6973 20.6106 20.7126 20.676 21.1446 20.8765C22.8037 21.6456 24.4629 22.4188 26.122 23.1838ZM4.21286 24.5789C3.78087 24.9798 3.39476 25.438 2.98953 25.8716C3.02011 25.9085 3.04687 25.9494 3.08128 25.9944C3.24184 25.8962 3.40622 25.8021 3.56679 25.6957C4.22815 25.258 4.88952 24.8202 5.55471 24.3825C6.89273 23.4988 8.23076 22.6152 9.5726 21.7397C9.86315 21.5515 9.89755 21.3961 9.64524 21.1301C9.39674 20.8683 9.18267 20.5697 8.99152 20.2628C8.81184 19.9765 8.67422 19.956 8.44102 20.2015C7.55792 21.1342 6.66718 22.0506 5.77644 22.9711C5.25652 23.507 4.76336 24.0716 4.21286 24.5789L4.21286 24.5789ZM23.0905 27.639C23.4078 28.0358 23.7442 28.4326 24.2182 28.6535C24.1915 28.6004 24.1724 28.5472 24.1456 28.494C23.3351 27.0744 22.5247 25.6548 21.7104 24.2352C21.244 23.4252 20.77 22.6193 20.3112 21.8052C20.1162 21.4533 19.9251 21.4492 19.6498 21.7111C19.4128 21.9361 19.1567 22.1447 18.8814 22.3165C18.5718 22.5088 18.5909 22.6765 18.8241 22.9302C19.6575 23.8302 20.4756 24.7384 21.2937 25.6507C21.8901 26.3176 22.5247 26.9394 23.0905 27.639H23.0905ZM7.54271 29.7087C7.49607 29.8162 7.44771 29.9277 7.50058 30.0608C7.67262 30.0404 7.71849 29.8767 7.79495 29.7663C8.41044 28.8663 9.02211 27.9622 9.63378 27.058C10.4481 25.8512 11.2547 24.6402 12.0728 23.4334C12.241 23.1879 12.241 23.0202 11.9581 22.877C11.6179 22.7011 11.2853 22.517 10.968 22.3002C10.6889 22.112 10.5666 22.1938 10.4442 22.5006C9.49232 24.8816 8.52894 27.2544 7.57321 29.6354C7.56396 29.6598 7.55337 29.6841 7.54271 29.7087H7.54271ZM17.876 28.9317C18.1933 29.7827 18.5259 30.6336 18.8661 31.5254C19.003 31.3923 18.9855 31.289 18.9701 31.1979C18.9666 31.1769 18.9631 31.1566 18.9617 31.1368C18.782 29.8849 18.5985 28.6331 18.4112 27.3853C18.2162 26.0885 18.0136 24.7957 17.8225 23.5029C17.7728 23.1675 17.639 23.0407 17.3102 23.147C16.9509 23.2657 16.5839 23.3516 16.2169 23.4375C16.0028 23.4866 15.9263 23.597 15.999 23.8179C16.0448 23.957 16.0869 24.1002 16.1366 24.2393C16.7138 25.8021 17.2911 27.369 17.876 28.9317H17.876ZM13.0019 30.652C12.9722 31.0931 12.9415 31.5484 13.0553 32C13.2197 31.9345 13.2159 31.82 13.2311 31.7218L13.667 29.7704C14.0913 27.8599 14.508 25.9453 14.9362 24.0348C15.0165 23.6829 14.9094 23.5193 14.573 23.5275C14.2213 23.5316 13.8734 23.5152 13.537 23.417C13.2044 23.3229 13.0706 23.4579 13.0744 23.8139C13.0821 24.4521 13.0821 25.0943 13.0706 25.7325C13.0595 26.3198 13.063 26.9076 13.0665 27.4954C13.0726 28.5295 13.0787 29.564 13.0056 30.5968C13.0044 30.6152 13.0031 30.6336 13.0019 30.652H13.0019Z" fill="black"/>
<path d="M40.4765 32V0H41.3086V32H40.4765Z" fill="black"/>
</svg>
